<?xml version="1.0" encoding="UTF-8"?>
<svg width="700pt" height="700pt" version="1.1" viewBox="0 0 700 700" xmlns="http://www.w3.org/2000/svg">
 <g fill-rule="evenodd">
  <path d="m157.5 93.332c0-35.438 28.727-64.164 64.168-64.164h256.66c35.441 0 64.168 28.727 64.168 64.164v373.34c0 35.438-28.727 64.164-64.168 64.164h-256.66c-35.441 0-64.168-28.727-64.168-64.164v-256.67c0-9.6641 7.8359-17.5 17.5-17.5s17.5 7.8359 17.5 17.5v256.67c0 16.109 13.059 29.164 29.168 29.164h256.66c16.109 0 29.168-13.055 29.168-29.164v-373.34c0-16.105-13.059-29.164-29.168-29.164h-256.66c-16.109 0-29.168 13.059-29.168 29.164v23.336c0 9.6641-7.8359 17.5-17.5 17.5s-17.5-7.8359-17.5-17.5z"/>
  <path d="m350 134.17c-9.6641 0-17.5 7.832-17.5 17.5 0 9.6641 7.8359 17.5 17.5 17.5s17.5-7.8359 17.5-17.5c0-9.668-7.8359-17.5-17.5-17.5zm-52.5 17.5c0-28.996 23.508-52.5 52.5-52.5s52.5 23.504 52.5 52.5c0 28.992-23.508 52.5-52.5 52.5s-52.5-23.508-52.5-52.5z"/>
  <path d="m350 250.83c-22.551 0-40.832 18.281-40.832 40.836 0 9.6641-7.8359 17.5-17.5 17.5-9.668 0-17.5-7.8359-17.5-17.5 0-41.883 33.949-75.836 75.832-75.836s75.832 33.953 75.832 75.836c0 9.6641-7.8359 17.5-17.5 17.5-9.6641 0-17.5-7.8359-17.5-17.5 0-22.555-18.281-40.836-40.832-40.836z"/>
  <path d="m262.5 350c0-9.6641 7.8359-17.5 17.5-17.5h140c9.6641 0 17.5 7.8359 17.5 17.5s-7.8359 17.5-17.5 17.5h-140c-9.6641 0-17.5-7.8359-17.5-17.5z"/>
  <path d="m262.5 420c0-9.6641 7.8359-17.5 17.5-17.5h140c9.6641 0 17.5 7.8359 17.5 17.5s-7.8359 17.5-17.5 17.5h-140c-9.6641 0-17.5-7.8359-17.5-17.5z"/>
 </g>
</svg>
